<?xml version="1.0" encoding="utf-8"?>
<!-- Generator: Adobe Illustrator 19.2.1, SVG Export Plug-In . SVG Version: 6.00 Build 0)  -->
<svg version="1.1" id="layer" xmlns="http://www.w3.org/2000/svg" xmlns:xlink="http://www.w3.org/1999/xlink" x="0px" y="0px"
	 viewBox="0 0 652 652" style="enable-background:new 0 0 652 652;" xml:space="preserve">
<style type="text/css">
	.st0{fill:#1A1A1A;}
</style>
<path class="st0" d="M118.2,320.8c4.6-5.3,7.2-11.5,7.2-18.2c0-24.9-18.7-43.3-58.7-43.3c-22.9,0-40,6.7-40,6.7l6,16
	c0,0,12.3-6.7,34-6.7s42.7,6.2,42.7,27.3c0,3.2-0.8,5.8-2.3,8c-16.3-12.5-37.3-20-53.7-20c-9.3,0-23.3,4.7-23.3,18
	c0,21.3,32.7,27.3,50,27.3c9.7,0,18.4-2.1,25.6-5.6c6.6,7.2,11.1,16,11.1,26.3c0,15.8-16.7,19.3-26,19.3c-25.3,0-40-17.1-44.7-27.3
	l-15.3,4v36h16v-13.3c0,0,16.1,17.3,44,17.3c26.7,0,42.7-15.7,42.7-36C133.4,343.1,127.4,330.9,118.2,320.8z M46.8,310
	c0-6.7,24.9-3.4,45,9.1C73.2,322.6,46.8,315.9,46.8,310z M145.7,274.2c0-6.6,5-11.6,11.6-11.6c6.6,0,11.6,5,11.6,11.6
	c0,6.4-5,11.6-11.6,11.6C150.7,285.7,145.7,280.6,145.7,274.2z M148.9,388.6v-88.9h16.5v88.9H148.9z M200.6,374.4h52.8v14.2h-72.5
	v-14.2l49.8-60.3h-46.4v-14.4h67.4v13L200.6,374.4z M283,374.4h52.8v14.2h-72.5v-14.2l49.8-60.3h-46.4v-14.4H334v13L283,374.4z
	 M423.5,338v50.7h-15.6V373c-6.4,11.4-17.4,18-31.8,18c-18.3,0-30.6-10.7-30.6-26.5c0-17.8,15.6-28.8,40.4-28.8
	c7.1,0,14.6,0.9,21.1,2.7V338c0-14.9-5.1-25.8-20.8-25.8c-12.1,0-19.7,6.4-17.1,18.1h-17.2c-4.8-19.2,11.7-32.9,34.5-32.9
	C411.2,297.4,423.5,313.6,423.5,338z M407.5,352c-6-2-13.5-3-20.4-3c-15.8,0-24.5,6.2-24.5,15.6c0,7.8,6,12.3,16,12.3
	C393.1,376.9,405,367.3,407.5,352z M529.6,344.2c0,28.1-16.9,46.7-40.4,46.7c-13.5,0-24-6-30.6-16.5v14.2h-16.5V264.2h16.5V314
	c6.6-10.5,17.1-16.5,30.6-16.5C512.9,297.4,529.6,316.3,529.6,344.2z M512.2,344.2c0-19.4-10.9-32-26.9-32c-16.4,0-27.2,13-27.2,32
	s10.9,32,27,32C501.5,376.2,512.2,363.2,512.2,344.2z M538.9,344.2c0-27.9,17.6-46.7,43.9-46.7s43.9,18.9,43.9,46.7
	c0,27.9-17.6,46.7-43.9,46.7S538.9,372.1,538.9,344.2z M609.3,344.2c0-19.2-10.5-32-26.5-32c-15.8,0-26.5,12.8-26.5,32
	c0,19,10.7,32,26.5,32C598.8,376.2,609.3,363.2,609.3,344.2z"/>
</svg>
