<?xml version="1.0" encoding="utf-8"?>
<!-- Generator: Adobe Illustrator 19.0.0, SVG Export Plug-In . SVG Version: 6.00 Build 0)  -->
<svg version="1.1" id="layer" xmlns="http://www.w3.org/2000/svg" xmlns:xlink="http://www.w3.org/1999/xlink" x="0px" y="0px"
	 viewBox="-153 -46 652 652" style="enable-background:new -153 -46 652 652;" xml:space="preserve">
<style type="text/css">
	.st0{fill:#164A81;}
</style>
<path class="st0" d="M-99.6,280.3l14.1,4.7c1.5-3.1,2.4-6.7,2.4-10.4c0-9.5-5.6-17.7-13.6-21.6l-4.5,23.7
	C-101.5,278.3-100.8,279.9-99.6,280.3 M-111.4,274l-19.1-4.7c-0.4,1.7-0.6,3.5-0.6,5.3c0,12.8,10.1,23.3,22.7,23.9l0-20.8
	C-108.3,276-109.7,274.4-111.4,274 M-103.9,266.5l5.6-14.2c-2.7-1.1-5.7-1.7-8.8-1.7c-10.7,0-19.7,7-22.8,16.7l21.6,2.1
	C-106.6,269.6-104.6,268.3-103.9,266.5 M-99.3,286.3c0.9,1.2,0.7,2.8-0.4,3.7c-1.1,0.8-2.7,0.5-3.6-0.7c-0.9-1.2-0.7-2.8,0.4-3.7
	C-101.8,284.8-100.1,285.1-99.3,286.3z M-105.3,286.7l-0.9,11.8c8.5-0.3,15.9-5,20-11.9l-15.2-3
	C-103.4,283.2-105.2,284.6-105.3,286.7L-105.3,286.7z M136,279.3h6.5v13.5c-2.1,2-5.7,3.2-9.6,3.2c-9.8,0-15.9-7.7-15.9-20
	c0-12.2,6.2-19.8,16.2-19.8c4.1,0,7.3,1.4,10.1,4.4l0.1,0.1l1.4-3.2c-3.3-3.1-7.1-4.7-11.5-4.7c-12.1,0-20,9.1-20,23.2
	c0,14.2,7.6,23.4,19.4,23.4c5.4,0,10.3-1.9,13.4-5.2l0.1-0.1v-18h-8.7L136,279.3 M464.9,267.1c0.6,0,1.1-0.2,1.1-0.8
	c0-0.5-0.3-0.8-1-0.8h-0.7v1.6H464.9z M463.6,264.9h1.5c0.8,0,1.6,0.3,1.6,1.4c0,0.5-0.4,1.1-0.9,1.2l1.1,1.8h-0.8l-0.8-1.6h-1v1.6
	h-0.7V264.9z M468.3,267.2c0-2.1-1.4-3.6-3.2-3.6c-1.8,0-3.2,1.5-3.2,3.6c0,2,1.4,3.5,3.2,3.5C466.9,270.7,468.3,269.2,468.3,267.2z
	 M461.2,267.2c0-2.5,1.8-4.2,3.9-4.2c2.1,0,3.9,1.7,3.9,4.2c0,2.5-1.8,4.1-3.9,4.1C462.9,271.3,461.2,269.7,461.2,267.2L461.2,267.2
	z M-21.7,290.7l0.1-32c0-3,0.1-5.5,0.8-7.6l0.1-0.3l-0.4,0l-5.5,0c-14.8,36.3-14.8,36.3-15.9,39.1c-0.5-1.1-15.5-39.1-15.5-39.1
	h-6.4l0.1,0.3c0.4,1,0.8,2,0.7,7.6l0,32c0,3-0.1,5.5-0.8,7.6l-0.1,0.3l7,0l-0.1-0.3c-0.6-2.6-0.6-3.5-0.7-7.7l-0.1-3.4
	c0,0-0.5-21.7-0.6-27.5c1,2.5,15.3,39.4,15.3,39.4l1.9,0c0,0,14.8-36.9,15.8-39.4c-0.1,2.6-0.8,29.1-0.8,29.1
	c-0.2,6.5-0.2,7.3-0.9,9.5l-0.1,0.3l7.1,0l-0.1-0.3C-21.3,297.3-21.7,296.2-21.7,290.7 M22.8,298.6l-0.2-0.4
	c-0.5-1.3-0.8-2-0.7-11.6c0,0,0-13,0-13.2c0.6-0.9,2.8-3.7,6.4-3.9c1-0.1,2.5,0.1,3.8,0.5l0.3,0.1l0-4.6l-0.1-0.1
	c-1.1-0.6-2.6-0.8-3.4-0.8c-3.4,0-5.8,2.5-7,4c-0.1-1-0.3-3.9-0.3-3.9l-5.4,2.4l0.1,0.2c0.6,1.7,0.8,2.5,0.8,13.3l0,6
	c0,9.6-0.3,10.4-0.8,11.6l-0.1,0.3L22.8,298.6 M42.3,286.5l0-21.8l-0.3,0.2l-5.4,2.3l0.2,0.9l0.4,1.5c0.2,1.4,0.2,2.7,0.3,9.7l0,1.3
	l0,6c0,9.5-0.3,10.3-0.7,11.6l-0.1,0.4l6.4,0l-0.1-0.4C42.5,297,42.3,296.1,42.3,286.5 M95.2,294.4c-2.3,0.5-6.7,0.5-8.1,0.5
	l-7.7-0.2l-1.4,0.1c0,0-0.4,0-0.8,0c0.6-0.8,21.1-29.6,21.1-29.6h-0.5l-24.8,0c-0.9,0-1.1,0.5-1.4,1.5c0,0-0.7,3.3-0.7,3.3l0.4-0.1
	c2.6-0.8,5.2-0.8,15.1-0.8c2.2,0,2.9,0,4.3-0.1c-0.6,0.9-21.5,29.6-21.5,29.6l23.6,0c2.5,0,3.3,0,3.8-1.1l1.8-4.2l-0.6,0.3
	C96.6,294.1,96,294.3,95.2,294.4 M47.6,265.2l0,4.3c0,0,5.6,0,6.1,0c0,0.5,0,20.8,0,20.8c0,2.9,0,9,7.2,9c2.6,0,4.5-0.8,5.4-1.2
	l0.1-0.1l0-4.3l-0.4,0.3c-2,1.5-3.6,1.5-4.2,1.5c-2.8,0-3.3-2-3.3-5.6c0,0,0-19.8,0-20.3c0.5,0,7.2,0,7.2,0l0-4.3c0,0-6.7,0-7.1,0
	c0-0.5,0-9.9,0-9.9l-0.4,0.2l-4.5,2.3c0,0,0,7,0,7.5L47.6,265.2 M4.5,282.9c0,3.1-0.6,12.3-9.2,12.4c-3.8,0-5.9-1.9-5.9-5.5
	c0-6.8,8.1-7.6,14.2-7.6c0,0,0.6,0,0.9,0L4.5,282.9z M9.4,286.7l0-9.6c0-8.4-3.7-12.4-11.8-12.4c-2.7,0-6.7,1.2-8.9,2.8l-0.1,0.1
	l0,5.2l0.3-0.3c2.1-1.7,4.7-3.6,7.7-3.6c5.1,0,7.9,2.2,7.9,7.9c0,0,0,1,0,1.4c-0.2,0-0.5,0-0.5,0c-6.9,0-19.7,0-19.7,11.6
	c0,1.6,0.5,9.5,10.6,9.5c3.4,0,7.8-1.7,9.9-5.5c0,1.7,0.1,2.9,0.5,4.6l0,0.2h5.2l-0.2-0.3C9.9,296.9,9.4,296.1,9.4,286.7L9.4,286.7z
	 M39.9,250.1c-1.7,0-3.1,1.3-3.1,3c0,1.6,1.4,3,3.1,3c1.8,0,3.2-1.4,3.2-3C43.1,251.5,41.7,250.1,39.9,250.1 M179.7,296.2
	c-6.6,0-11.1-5.8-11.1-14c0-8.3,4.6-14.2,11.1-14.2c6.5,0,11.2,6,11.2,14.2C190.9,290.3,186.2,296.2,179.7,296.2z M179.7,264.8
	c-7.1,0-14.8,5.4-14.8,17.4c0,11.8,7.7,17.2,14.8,17.2c8.7,0,14.9-7.1,14.9-17.2C194.6,271.9,188.5,264.8,179.7,264.8L179.7,264.8z
	 M204.4,273.2c3.9-3.5,7.3-5.2,10.3-5.2c8.3,0,10,7.4,10,13.6c0,8.6-4.5,14.6-11,14.6c-1.4,0-5-0.4-9.3-4V273.2z M215.2,264.8
	c-3.4,0-7,1.6-10.9,4.7l0.1-5.7v-10.3l-3.5,1.5v43.5h3l0.3-2.9c3.1,2.4,6.6,3.7,9.6,3.7c9.6,0,14.6-8.9,14.6-17.8
	C228.4,270.9,223.6,264.8,215.2,264.8L215.2,264.8z M254.4,280.6v10.6c-4.2,3.6-7.3,5.1-10.7,5.1c-4.2,0-6.5-2.3-6.5-6.2
	C237.2,284.8,242.2,282,254.4,280.6z M247.4,264.8c-5.4,0-9.9,2.7-12.2,4.2l-0.2,0.1l1.6,2.7l0.2-0.2c1.9-1.4,5.6-3.7,10.2-3.7
	c2.1,0,3.8,0.6,5.1,1.9c2,2,2.3,5.3,2.3,7.9c-14.9,1.7-20.9,5.3-20.9,12.5c0,6.8,5,9.2,9.7,9.2c3.5,0,7.2-1.5,11.4-4.8l0.3,4h3v-21
	C258,269.2,254.3,264.8,247.4,264.8L247.4,264.8z M272.7,296l-0.3,0.1c-0.6,0.1-0.9,0.1-1.2,0.1c-0.7,0-1.1-0.7-1.1-1.8v-40.8
	l-3.5,1.5V294c0,3.6,1.4,5.4,4.3,5.4c1,0,1.7-0.2,2.2-0.4l0.2-0.1L272.7,296 M295.5,295.3v-19h17.8V273h-17.8v-16.3h21.2v-3.3h-24.9
	v45h25.5v-3.3H295.5 M344,265.6l-7.4,20.5c-1.1,3.1-2.2,6.2-3.2,9c-0.4-1.1-0.8-2.2-1.2-3.4c-0.7-1.8-1.3-3.7-1.9-5.6l-7.4-20.5
	h-3.8l12.4,33h3.9l12.2-33H344 M373.2,279.9h-20.1c0.7-7.1,5.1-12,10.8-12C369.7,267.9,373.1,272.3,373.2,279.9z M363.9,264.8
	c-7,0-14.4,6.1-14.4,17.4c0,10.1,6.3,17.2,15.3,17.2c4.6,0,7.5-1.5,10.3-3.2l0.2-0.1l-1.5-2.8l-0.3,0.2c-2.7,1.9-5.4,2.8-8.5,2.8
	c-6.9,0-11.7-5.4-11.9-13.5h23.3l0-0.2c0.1-0.8,0.1-1.7,0.1-2.5C376.6,270.5,371.8,264.8,363.9,264.8L363.9,264.8z M397.9,264.8
	c-4.7,0-8.1,2.7-11.1,5.6l-0.3-4.8h-3.1v33h3.5V274c3.9-3.9,6.5-5.9,10.3-5.9c5,0,7.1,2.9,7.1,9.8v20.7h3.5v-21.1
	C408,269,404.7,264.8,397.9,264.8 M448.2,280.1l-0.8-0.3c-4.1-1.5-7.4-3-7.4-6.3c0-2.8,2.2-5.6,7-5.6c3.3,0,5.6,1.4,7.6,2.8l0.2,0.2
	l2-2.5l-0.2-0.2c-2.6-2.2-6.1-3.4-9.4-3.4c-7.4,0-10.7,4.5-10.7,8.9c0,5.8,5.6,7.8,10.5,9.5c3.9,1.4,7.7,3.1,7.7,6.9
	c0,3.1-2.3,6.1-7.4,6.1c-4.4,0-7.2-1.6-10.2-4.1l-0.2-0.2l-2.1,2.7l0.2,0.2c2,1.7,6.3,4.5,12.1,4.5c7.7,0,11.2-4.9,11.2-9.4
	C458.2,283.8,453.1,281.9,448.2,280.1 M159.7,296.1c-0.6,0.1-0.9,0.1-1.2,0.1c-0.7,0-1.1-0.7-1.1-1.8v-40.8l-3.5,1.5V294
	c0,3.6,1.4,5.4,4.3,5.4c1,0,1.7-0.2,2.2-0.4l0.2-0.1L160,296L159.7,296.1 M430.3,295.1l-0.3,0.1c-1.2,0.6-2.8,1-3.9,1
	c-4.3,0-5.2-2.6-5.2-6.6v-20.8h8.9v-3.1h-8.9v-9.1l-3.6,1.5v7.6l-5.1,0.3v2.8h5.1v20.6c0,6.9,2.7,10.1,8.4,10.1
	c1.7,0,4.1-0.8,5.4-1.2l0.3-0.1L430.3,295.1"/>
</svg>
